HIERARCHY
ROOT hip
{
  OFFSET 0 0 0
  CHANNELS 6 Xposition Yposition Zposition Zrotation Yrotation Xrotation
  JOINT abdomen
  {
    OFFSET 0 20.6881 -0.73152
    CHANNELS 3 Zrotation Xrotation Yrotation
    JOINT chest
    {
      OFFSET 0 11.7043 -0.48768
      CHANNELS 3 Zrotation Xrotation Yrotation
      JOINT neck
      {
        OFFSET 0 22.1894 -2.19456
        CHANNELS 3 Zrotation Xrotation Yrotation
        JOINT head
        {
          OFFSET -0.24384 7.07133 1.2192
          CHANNELS 3 Zrotation Xrotation Yrotation
          JOINT leftEye
          {
            OFFSET 4.14528 8.04674 8.04672
            CHANNELS 3 Zrotation Xrotation Yrotation
            End Site
            {
              OFFSET 1 0 0
            }
          }
          JOINT rightEye
          {
            OFFSET -3.6576 8.04674 8.04672
            CHANNELS 3 Zrotation Xrotation Yrotation
            End Site
            {
              OFFSET 1 0 0
            }
          }
        }
      }
      JOINT rCollar
      {
        OFFSET -2.68224 19.2634 -4.8768
        CHANNELS 3 Zrotation Xrotation Yrotation
        JOINT rShldr
        {
          OFFSET -8.77824 -1.95073 1.46304
          CHANNELS 3 Zrotation Xrotation Yrotation
          JOINT rForeArm
          {
            OFFSET -28.1742 -1.7115 0.48768
            CHANNELS 3 Zrotation Xrotation Yrotation
            JOINT rHand
            {
              OFFSET -22.5879 0.773209 7.07136
              CHANNELS 3 Zrotation Xrotation Yrotation
              JOINT rThumb1
              {
                OFFSET -1.2192 -0.487915 3.41376
                CHANNELS 3 Zrotation Xrotation Yrotation
                JOINT rThumb2
                {
                  OFFSET -3.37035 -0.52449 3.41376
                  CHANNELS 3 Zrotation Xrotation Yrotation
                  End Site
                  {
                    OFFSET -1.78271 -1.18214 1.43049
                  }
                }
              }
              JOINT rIndex1
              {
                OFFSET -7.75947 0.938293 5.60832
                CHANNELS 3 Zrotation Xrotation Yrotation
                JOINT rIndex2
                {
                  OFFSET -2.54057 -0.884171 1.56538
                  CHANNELS 3 Zrotation Xrotation Yrotation
                  End Site
                  {
                    OFFSET -1.62519 -0.234802 1.16502
                  }
                }
              }
              JOINT rMid1
              {
                OFFSET -8.24714 1.18213 3.41376
                CHANNELS 3 Zrotation Xrotation Yrotation
                JOINT rMid2
                {
                  OFFSET -3.10165 -0.590103 1.0647
                  CHANNELS 3 Zrotation Xrotation Yrotation
                  End Site
                  {
                    OFFSET -2.48547 -0.328903 0.83742
                  }
                }
              }
              JOINT rRing1
              {
                OFFSET -8.82822 0.546677 1.51678
                CHANNELS 3 Zrotation Xrotation Yrotation
                JOINT rRing2
                {
                  OFFSET -2.60934 -0.819778 -0.0198488
                  CHANNELS 3 Zrotation Xrotation Yrotation
                  End Site
                  {
                    OFFSET -2.33842 -0.294052 0.168128
                  }
                }
              }
              JOINT rPinky1
              {
                OFFSET -8.27202 -0.0477905 -0.4584
                CHANNELS 3 Zrotation Xrotation Yrotation
                JOINT rPinky2
                {
                  OFFSET -1.82734 -0.647385 -0.700984
                  CHANNELS 3 Zrotation Xrotation Yrotation
                  End Site
                  {
                    OFFSET -1.69225 -0.51767 -0.607171
                  }
                }
              }
            }
          }
        }
      }
      JOINT lCollar
      {
        OFFSET 2.68224 19.2634 -4.8768
        CHANNELS 3 Zrotation Xrotation Yrotation
        JOINT lShldr
        {
          OFFSET 8.77824 -1.95073 1.46304
          CHANNELS 3 Zrotation Xrotation Yrotation
          JOINT lForeArm
          {
            OFFSET 28.1742 -1.7115 0.48768
            CHANNELS 3 Zrotation Xrotation Yrotation
            JOINT lHand
            {
              OFFSET 22.5879 0.773209 7.07136
              CHANNELS 3 Zrotation Xrotation Yrotation
              JOINT lThumb1
              {
                OFFSET 1.2192 -0.487915 3.41376
                CHANNELS 3 Zrotation Xrotation Yrotation
                JOINT lThumb2
                {
                  OFFSET 3.37035 -0.52449 3.41376
                  CHANNELS 3 Zrotation Xrotation Yrotation
                  End Site
                  {
                    OFFSET 1.78271 -1.18214 1.43049
                  }
                }
              }
              JOINT lIndex1
              {
                OFFSET 7.75947 0.938293 5.60832
                CHANNELS 3 Zrotation Xrotation Yrotation
                JOINT lIndex2
                {
                  OFFSET 2.54057 -0.884171 1.56538
                  CHANNELS 3 Zrotation Xrotation Yrotation
                  End Site
                  {
                    OFFSET 1.62519 -0.234802 1.16502
                  }
                }
              }
              JOINT lMid1
              {
                OFFSET 8.24714 1.18213 3.41376
                CHANNELS 3 Zrotation Xrotation Yrotation
                JOINT lMid2
                {
                  OFFSET 3.10165 -0.590103 1.0647
                  CHANNELS 3 Zrotation Xrotation Yrotation
                  End Site
                  {
                    OFFSET 2.48547 -0.328903 0.83742
                  }
                }
              }
              JOINT lRing1
              {
                OFFSET 8.82822 0.546677 1.51678
                CHANNELS 3 Zrotation Xrotation Yrotation
                JOINT lRing2
                {
                  OFFSET 2.60934 -0.819778 -0.0198488
                  CHANNELS 3 Zrotation Xrotation Yrotation
                  End Site
                  {
                    OFFSET 2.33842 -0.294052 0.168128
                  }
                }
              }
              JOINT lPinky1
              {
                OFFSET 8.27202 -0.0477905 -0.4584
                CHANNELS 3 Zrotation Xrotation Yrotation
                JOINT lPinky2
                {
                  OFFSET 1.82734 -0.647385 -0.700984
                  CHANNELS 3 Zrotation Xrotation Yrotation
                  End Site
                  {
                    OFFSET 1.69225 -0.51767 -0.607171
                  }
                }
              }
            }
          }
        }
      }
    }
  }
  JOINT rButtock
  {
    OFFSET -8.77824 4.35084 1.2192
    CHANNELS 3 Zrotation Xrotation Yrotation
    JOINT rThigh
    {
      OFFSET 0 -1.70687 -2.19456
      CHANNELS 3 Zrotation Xrotation Yrotation
      JOINT rShin
      {
        OFFSET 0 -36.8199 0.73152
        CHANNELS 3 Zrotation Xrotation Yrotation
        JOINT rFoot
        {
          OFFSET 0.73152 -45.1104 -5.12064
          CHANNELS 3 Zrotation Xrotation Yrotation
          End Site
          {
            OFFSET -1.1221 -3.69964 12.103
          }
        }
      }
    }
  }
  JOINT lButtock
  {
    OFFSET 8.77824 4.35084 1.2192
    CHANNELS 3 Zrotation Xrotation Yrotation
    JOINT lThigh
    {
      OFFSET 0 -1.70687 -2.19456
      CHANNELS 3 Zrotation Xrotation Yrotation
      JOINT lShin
      {
        OFFSET 0 -36.8199 0.73152
        CHANNELS 3 Zrotation Xrotation Yrotation
        JOINT lFoot
        {
          OFFSET -0.73152 -45.1104 -5.12064
          CHANNELS 3 Zrotation Xrotation Yrotation
          End Site
          {
            OFFSET 1.1221 -3.69964 12.103
          }
        }
      }
    }
  }
}
MOTION
Frames:	7
Frame Time:	0.00833333
172.172 74.5324 10.8124 -123.049 -86.4254 145.223 5.20911 5.03128 5.46299 3.39159 -16.8515 2.14482 -1.52594 -3.66694 -1.11293 -9.82318 6.40228 -1.90502 -0.0 0.0 0.0 -0.0 0.0 0.0 -9.76538e-14 -1.01787e-12 -2.03424e-14 61.0577 49.0176 -1.76913 -24.4395 -19.9404 51.0379 -0.219139 -13.193 -1.88818 7.0281e-10 -7.09561e-11 3.22658e-09 1.17212e-09 -1.2127e-10 5.58166e-09 7.02816e-10 -7.09532e-11 3.22657e-09 7.73091 5.47488 0.417314 7.02809e-10 -7.09506e-11 3.22657e-09 2.90554 0.965183 0.102902 7.02815e-10 -7.09513e-11 3.22657e-09 10.2786 0.731801 0.0259123 7.02802e-10 -7.09515e-11 3.22658e-09 2.22167 -0.733487 -0.20892 -9.77207e-14 -1.01787e-12 -2.07054e-14 -92.034 20.9144 36.3986 24.3498 -19.7608 -50.7697 0.00735249 -2.39849 0.33729 4.24791e-10 -1.798e-09 -1.14058e-09 7.35801e-10 -3.10126e-09 -1.9639e-09 4.24784e-10 -1.798e-09 -1.14058e-09 -7.73091 5.47488 -0.417314 4.24794e-10 -1.798e-09 -1.14059e-09 -2.90554 0.965183 -0.102902 4.24786e-10 -1.798e-09 -1.14058e-09 -10.2786 0.731801 -0.0259123 4.24796e-10 -1.798e-09 -1.14059e-09 -2.22167 -0.733487 0.20892 -2.03217e-16 0.0 -3.88251e-19 15.5546 0.0470189 6.51762 0.136722 19.166 0.934634 -1.65683 -9.97557 -15.0002 2.03217e-16 0.0 3.88251e-19 -11.7761 -49.1225 -14.6627 0.157455 44.2708 -2.48827 2.86172 6.24122 -22.2397
169.458 74.3543 11.2397 -120.476 -87.3405 143.01 4.22084 5.13373 5.1163 3.70558 -16.8787 2.08454 -1.15728 -3.71528 -1.12617 -9.63168 6.15239 -2.05107 -0.0 0.0 0.0 -0.0 0.0 0.0 -1.26389e-13 -1.20548e-12 -2.60408e-14 62.1393 48.793 -2.87635 -24.5078 -20.0773 51.2581 -0.225977 -13.4162 -1.92113 8.62499e-10 -9.36037e-11 3.35141e-09 1.4468e-09 -1.60303e-10 5.79892e-09 8.62506e-10 -9.36013e-11 3.35141e-09 7.73091 5.47488 0.417314 8.62498e-10 -9.35993e-11 3.35141e-09 2.90554 0.965183 0.102902 8.62505e-10 -9.36004e-11 3.35141e-09 10.2786 0.731801 0.0259123 8.62491e-10 -9.36001e-11 3.35141e-09 2.22167 -0.733487 -0.20892 -1.26474e-13 -1.20548e-12 -2.64384e-14 -92.0789 21.5939 35.3729 24.3888 -19.8417 -50.8637 0.0061142 -2.23205 0.313855 5.66199e-10 -1.8768e-09 -1.15041e-09 9.7994e-10 -3.23749e-09 -1.9805e-09 5.66189e-10 -1.8768e-09 -1.15041e-09 -7.73091 5.47488 -0.417314 5.662e-10 -1.8768e-09 -1.15042e-09 -2.90554 0.965183 -0.102902 5.66194e-10 -1.8768e-09 -1.15042e-09 -10.2786 0.731801 -0.0259123 5.66204e-10 -1.8768e-09 -1.15042e-09 -2.22167 -0.733487 0.20892 -2.03217e-16 0.0 -3.88251e-19 13.3938 -1.52357 2.32266 0.109507 22.6712 1.11188 -0.419998 -3.54362 -12.9858 2.03217e-16 0.0 3.88251e-19 -13.072 -47.5816 -15.3992 0.177634 44.6774 -2.39323 3.19383 7.19515 -22.0995
166.763 74.2737 11.6548 -112.453 -88.2336 135.323 3.24596 5.2821 4.4506 3.98007 -16.8561 1.92713 -0.813397 -3.88415 -1.11188 -9.36177 5.87124 -2.13399 -0.0 0.0 0.0 -0.0 0.0 0.0 -1.11146e-13 -9.88444e-13 -2.86137e-14 63.4532 48.8206 -4.29871 -24.5393 -20.1383 51.3805 -0.244683 -13.9902 -2.00624 8.18247e-10 -1.16868e-10 2.98255e-09 1.37482e-09 -2.00847e-10 5.16063e-09 8.18255e-10 -1.16867e-10 2.98254e-09 7.73091 5.47488 0.417314 8.18248e-10 -1.16866e-10 2.98255e-09 2.90554 0.965183 0.102902 8.18253e-10 -1.16867e-10 2.98255e-09 10.2786 0.731801 0.0259123 8.18239e-10 -1.16866e-10 2.98255e-09 2.22167 -0.733487 -0.20892 -1.11295e-13 -9.88448e-13 -2.90039e-14 -92.071 22.5995 33.885 24.4978 -20.0568 -51.2429 0.00693569 -2.41814 0.340039 7.18667e-10 -1.76548e-09 -1.24305e-09 1.24401e-09 -3.04558e-09 -2.14079e-09 7.18654e-10 -1.76547e-09 -1.24305e-09 -7.73091 5.47488 -0.417314 7.18667e-10 -1.76547e-09 -1.24306e-09 -2.90554 0.965183 -0.102902 7.18663e-10 -1.76548e-09 -1.24306e-09 -10.2786 0.731801 -0.0259123 7.18671e-10 -1.76547e-09 -1.24306e-09 -2.22167 -0.733487 0.20892 -2.03217e-16 0.0 -3.88251e-19 11.2491 -3.76776 -1.08098 0.0219115 27.403 1.1816 0.36547 2.05095 -12.4737 2.03217e-16 0.0 3.88251e-19 -14.4574 -45.7179 -16.2274 0.189794 44.5305 -2.26695 3.60821 8.41788 -22.0499
164.3 74.1519 12.0286 -92.0198 -88.8628 115.143 2.28774 5.43542 3.53669 4.22736 -16.7866 1.69266 -0.453058 -4.12809 -1.07085 -9.05285 5.57712 -2.16827 -0.0 0.0 0.0 -0.0 0.0 0.0 -6.77901e-14 -5.31998e-13 -2.78764e-14 65.0559 49.0157 -6.0565 -24.5345 -20.1265 51.3802 -0.274448 -14.8105 -2.12898 6.45467e-10 -1.41632e-10 2.25188e-09 1.08505e-09 -2.44284e-10 3.89562e-09 6.45477e-10 -1.41634e-10 2.25187e-09 7.73091 5.47488 0.417314 6.45469e-10 -1.41634e-10 2.25188e-09 2.90554 0.965183 0.102902 6.45472e-10 -1.41636e-10 2.25188e-09 10.2786 0.731801 0.0259123 6.45459e-10 -1.41633e-10 2.25189e-09 2.22167 -0.733487 -0.20892 -6.8034e-14 -5.32011e-13 -2.82336e-14 -91.9365 23.8698 31.9395 24.6321 -20.3243 -51.7439 0.00903552 -2.77481 0.390262 8.65783e-10 -1.49048e-09 -1.37438e-09 1.4993e-09 -2.57114e-09 -2.36834e-09 8.65769e-10 -1.49047e-09 -1.37436e-09 -7.73091 5.47488 -0.417314 8.65784e-10 -1.49048e-09 -1.37438e-09 -2.90554 0.965183 -0.102902 8.65782e-10 -1.49048e-09 -1.37438e-09 -10.2786 0.731801 -0.0259123 8.65787e-10 -1.49048e-09 -1.37439e-09 -2.22167 -0.733487 0.20892 -2.03217e-16 0.0 -3.88251e-19 8.90679 -6.59533 -4.12605 -0.0961826 33.1663 1.18225 1.1724 7.26239 -12.9269 2.03217e-16 0.0 3.88251e-19 -15.8595 -43.6078 -17.052 0.200951 44.0187 -2.12211 4.05334 9.79969 -22.0476
161.95 74.0291 12.3444 -50.958 -89.241 74.3439 1.17033 5.63258 2.55876 4.46143 -16.7291 1.43121 -0.0889593 -4.36267 -1.01786 -8.68349 5.21473 -2.18233 -0.0 0.0 0.0 -0.0 0.0 0.0 -1.71202e-14 9.86535e-14 -2.63331e-14 66.895 49.2591 -8.04525 -24.4839 -20.0255 51.2091 -0.308516 -15.6484 -2.25577 3.60977e-10 -1.26777e-10 1.354e-09 6.05001e-10 -2.18959e-10 2.34068e-09 3.60987e-10 -1.26781e-10 1.354e-09 7.73091 5.47488 0.417314 3.6098e-10 -1.26782e-10 1.35401e-09 2.90554 0.965183 0.102902 3.60981e-10 -1.26785e-10 1.35401e-09 10.2786 0.731801 0.0259123 3.60968e-10 -1.26781e-10 1.35402e-09 2.22167 -0.733487 -0.20892 -1.74507e-14 9.86338e-14 -2.66527e-14 -91.5896 25.3885 29.6153 24.8239 -20.7188 -52.4117 0.0118204 -3.13579 0.441139 8.4813e-10 -1.06029e-09 -1.20076e-09 1.46903e-09 -1.82864e-09 -2.06949e-09 8.48115e-10 -1.06028e-09 -1.20074e-09 -7.73091 5.47488 -0.417314 8.48133e-10 -1.06029e-09 -1.20076e-09 -2.90554 0.965183 -0.102902 8.48131e-10 -1.06029e-09 -1.20076e-09 -10.2786 0.731801 -0.0259123 8.48134e-10 -1.06029e-09 -1.20077e-09 -2.22167 -0.733487 0.20892 -2.03217e-16 0.0 -3.88251e-19 6.34821 -9.93552 -6.80402 -0.211225 39.2351 1.1733 1.93503 11.2838 -13.8691 2.03217e-16 0.0 3.88251e-19 -17.2139 -41.4645 -17.6844 0.212535 43.3732 -1.97138 4.47513 11.1885 -22.0236
159.721 73.8633 12.7079 14.5483 -89.1238 9.014 -0.28166 5.91346 1.70092 4.69502 -16.7425 1.19256 0.265711 -4.50346 -0.967688 -8.23289 4.72879 -2.2046 -0.0 0.0 0.0 -0.0 0.0 0.0 2.00638e-14 8.3831e-13 -2.64881e-14 68.8957 49.4379 -10.1437 -24.3756 -19.8157 50.82 -0.336304 -16.2753 -2.35158 -1.84062e-11 -3.11822e-11 4.83533e-10 -3.78351e-11 -5.3217e-11 8.32611e-10 -1.83959e-11 -3.11865e-11 4.83527e-10 7.73091 5.47488 0.417314 -1.84023e-11 -3.11892e-11 4.8354e-10 2.90554 0.965183 0.102902 -1.84028e-11 -3.11913e-11 4.8354e-10 10.2786 0.731801 0.0259123 -1.84144e-11 -3.11873e-11 4.83552e-10 2.22167 -0.733487 -0.20892 1.96946e-14 8.38287e-13 -2.67862e-14 -90.9416 27.1384 26.9885 25.0978 -21.3072 -53.2975 0.0136586 -3.33479 0.469209 5.0629e-10 -4.83378e-10 -3.78572e-10 8.76419e-10 -8.32574e-10 -6.50554e-10 5.06276e-10 -4.83363e-10 -3.78546e-10 -7.73091 5.47488 -0.417314 5.06293e-10 -4.83373e-10 -3.78572e-10 -2.90554 0.965183 -0.102902 5.06293e-10 -4.83374e-10 -3.78571e-10 -10.2786 0.731801 -0.0259123 5.06294e-10 -4.83376e-10 -3.78585e-10 -2.22167 -0.733487 0.20892 -2.03217e-16 0.0 -3.88251e-19 3.5905 -13.7246 -9.11255 -0.318948 44.8831 1.22416 2.34951 13.359 -14.7644 2.03217e-16 0.0 3.88251e-19 -18.5044 -39.4977 -17.9599 0.222287 42.825 -1.82457 4.81293 12.4344 -21.9017
157.537 73.738 13.0105 48.698 -88.445 -25.0753 -2.28513 6.35072 0.996202 4.95539 -16.854 0.981081 0.609407 -4.50809 -0.934918 -7.66032 4.03923 -2.26754 -0.0 0.0 0.0 -0.0 0.0 0.0 4.54062e-14 1.87246e-12 -2.99548e-14 71.0837 49.5754 -12.3159 -24.173 -19.4298 50.1179 -0.352779 -16.638 -2.40725 -7.12277e-10 2.22437e-10 -4.8896e-10 -1.21955e-09 3.87663e-10 -8.54226e-10 -7.12268e-10 2.22434e-10 -4.88967e-10 7.73091 5.47488 0.417314 -7.12274e-10 2.22431e-10 -4.88955e-10 2.90554 0.965183 0.102902 -7.12273e-10 2.2243e-10 -4.88956e-10 10.2786 0.731801 0.0259123 -7.12284e-10 2.22433e-10 -4.88943e-10 2.22167 -0.733487 -0.20892 4.50713e-14 1.87274e-12 -3.02502e-14 -89.8389 29.2424 23.8902 25.4225 -22.0427 -54.4678 0.0145583 -3.37749 0.475251 -5.31943e-10 4.44607e-10 1.82866e-09 -9.23751e-10 7.70144e-10 3.16029e-09 -5.31956e-10 4.4462e-10 1.82869e-09 -7.73091 5.47488 -0.417314 -5.31941e-10 4.44612e-10 1.82866e-09 -2.90554 0.965183 -0.102902 -5.31941e-10 4.44611e-10 1.82866e-09 -10.2786 0.731801 -0.0259123 -5.3194e-10 4.44609e-10 1.82865e-09 -2.22167 -0.733487 0.20892 -2.03217e-16 0.0 -3.88251e-19 0.556253 -18.148 -11.1009 -0.464058 50.3272 1.38035 2.11539 12.8488 -15.567 2.03217e-16 0.0 3.88251e-19 -19.9835 -37.8374 -17.9168 0.234205 42.5464 -1.66942 5.07194 13.679 -21.5873
